# xmcd CD database file
#
# Track frame offsets:
#	150
#	13165
#	27201
#	39092
#	53280
#	69128
#	82025
#	92309
#	104741
#	116813
#	128084
#	141767
#	153796
#	165543
#	176926
#	189773
#	202282
#	213878
#	225370
#	236739
#	250114
#	263180
#	275582
#	287101
#	297670
#
# Disc length: 4125 seconds
#
# Revision: 0
# Processed by: cddbd v1.5PL3 Copyright (c) Steve Scherf et al.
# Submitted via: CDex 1.51
#
DISCID=5e101b19
DTITLE=Country music - 100 grands succès.2
DYEAR=1900
DGENRE=Country
TTITLE0=De Ford Bailey. Pan American Blues
TTITLE1=Uncle Dave Macon. I'm going away in the morn
TTITLE2=Uncle Dave Macon. Railroadin' N' Gamblin'
TTITLE3=Sam Mc Gee. Chevrolet Car
TTITLE4=Mc Gee Brothers. Brown's Ferry Blues
TTITLE5=Delmore Brothers. Blue Railroad Train
TTITLE6=Delmore Brothers. The Nashville Blues
TTITLE7=Roy Acuff. Wabash Canon Blues
TTITLE8=Roy Acuff. The Streamlined Cannon Ball
TTITLE9=Roy Acuff. Low and Lonely
TTITLE10=Bill Monroe. Dog House Blues
TTITLE11=Bill Monroe. Mule Skinner Blues
TTITLE12=Fiddlin' Arthur Smith. KC Stomp
TTITLE13=Ernest Tubb. Walkin' the Floor Over You
TTITLE14=Ernest Tubb. Let's Say Goodbye Like we said Hello
TTITLE15=Grandpa Jones. Depot in the Sky
TTITLE16=Pee Wee king. The Ghost and Honest Joe
TTITLE17=Hank Williams. I'll be a Bachelor' Till i Die
TTITLE18=Hank Williams. A Mansion on the Hill
TTITLE19=Hawkshaw Hawkins. Pan American
TTITLE20=Little Jimmy Dickens. Hillbilly Fever
TTITLE21=Red Foley. Kentucky Fox Chase
TTITLE22=Flatt and Scruggs. Head over Heels in Love with you
TTITLE23=Hank Snow. Music Makin' mama from Memphis
TTITLE24=Hank Snow. Love is a game of Let's Pretend
EXTD=
EXTT0=
EXTT1=
EXTT2=
EXTT3=
EXTT4=
EXTT5=
EXTT6=
EXTT7=
EXTT8=
EXTT9=
EXTT10=
EXTT11=
EXTT12=
EXTT13=
EXTT14=
EXTT15=
EXTT16=
EXTT17=
EXTT18=
EXTT19=
EXTT20=
EXTT21=
EXTT22=
EXTT23=
EXTT24=
PLAYORDER=
